<?xml version="1.0" encoding="utf-8"?>
<!-- Generator: Adobe Illustrator 16.0.0, SVG Export Plug-In . SVG Version: 6.00 Build 0)  -->
<!DOCTYPE svg PUBLIC "-//W3C//DTD SVG 1.1//EN" "http://www.w3.org/Graphics/SVG/1.1/DTD/svg11.dtd">
<svg version="1.1" id="Layer_1" xmlns="http://www.w3.org/2000/svg" xmlns:xlink="http://www.w3.org/1999/xlink" x="0px" y="0px"
	 width="456.167px" height="94px" viewBox="0 0 456.167 94" enable-background="new 0 0 456.167 94" xml:space="preserve">
<g>
	<g>
		<g>
			<g>
				<g>
					<defs>
						<path id="SVGID_1_" d="M54.974,24.861c-12.719,0-23.048,10.319-23.048,23.051v22.551c0,12.736,10.324,23.051,23.06,23.051
							h13.142h36.857c12.728,0,23.038-10.32,23.038-23.051V47.912c0-12.736-10.318-23.051-23.049-23.051H54.974z"/>
					</defs>
					<clipPath id="SVGID_2_">
						<use xlink:href="#SVGID_1_"  overflow="visible"/>
					</clipPath>
					<rect x="20.404" y="13.337" clip-path="url(#SVGID_2_)" fill="#004174" width="119.14" height="91.7"/>
				</g>
			</g>
		</g>
	</g>
	<g>
		<g>
			<g>
				<g>
					<defs>
						<path id="SVGID_3_" d="M53.202,32.171c-6.364,0-11.528,5.152-11.528,11.508v37.78c0,6.35,5.152,11.508,11.506,11.508h24.106
							h23.042h6.244c6.407,0,11.545-5.152,11.545-11.508v-37.78c0-6.349-5.161-11.508-11.527-11.508H53.202z"/>
					</defs>
					<clipPath id="SVGID_4_">
						<use xlink:href="#SVGID_3_"  overflow="visible"/>
					</clipPath>
					<rect x="30.153" y="20.65" clip-path="url(#SVGID_4_)" fill="#AFDBFC" width="99.486" height="83.836"/>
				</g>
			</g>
		</g>
	</g>
	<g>
		<g>
			<g>
				<g>
					<defs>
						<path id="SVGID_5_" d="M34.364,22.194c0,11.988,89.854,11.988,89.854,0c0-11.988-20.116-21.708-44.927-21.708
							C54.478,0.487,34.364,10.206,34.364,22.194"/>
					</defs>
					<clipPath id="SVGID_6_">
						<use xlink:href="#SVGID_5_"  overflow="visible"/>
					</clipPath>
					<rect x="22.841" y="-11.034" clip-path="url(#SVGID_6_)" fill="#004174" width="112.897" height="53.741"/>
				</g>
			</g>
		</g>
	</g>
	<g>
		<g>
			<g>
				<g>
					<defs>
						<polygon id="SVGID_7_" points="17.305,10.236 79.444,71.166 141.579,10.236 						"/>
					</defs>
					<clipPath id="SVGID_8_">
						<use xlink:href="#SVGID_7_"  overflow="visible"/>
					</clipPath>
					<rect x="5.785" y="-1.286" clip-path="url(#SVGID_8_)" fill="#00355F" width="147.316" height="83.974"/>
				</g>
			</g>
		</g>
	</g>
	<g>
		<g>
			<g>
				<g>
					<defs>
						<polygon id="SVGID_9_" points="79.782,8.468 27.052,5.361 79.391,45.902 131.729,5.361 						"/>
					</defs>
					<clipPath id="SVGID_10_">
						<use xlink:href="#SVGID_9_"  overflow="visible"/>
					</clipPath>
					<rect x="15.532" y="-6.16" clip-path="url(#SVGID_10_)" fill="#004174" width="127.719" height="63.583"/>
				</g>
			</g>
		</g>
	</g>
	<g>
		<g>
			<g>
				<g>
					<defs>
						<path id="SVGID_11_" d="M24.617,39.781c0,14.971,12.133,27.107,27.102,27.107c14.967,0,27.102-12.139,27.102-27.107
							c0-14.971-12.135-27.107-27.102-27.107C36.75,12.674,24.617,24.81,24.617,39.781"/>
					</defs>
					<clipPath id="SVGID_12_">
						<use xlink:href="#SVGID_11_"  overflow="visible"/>
					</clipPath>
					<rect x="13.096" y="1.152" clip-path="url(#SVGID_12_)" fill="#004174" width="77.246" height="77.258"/>
				</g>
			</g>
		</g>
	</g>
	<g>
		<g>
			<g>
				<g>
					<defs>
						<path id="SVGID_13_" d="M33.65,39.781c0,9.979,8.089,18.07,18.068,18.07c9.978,0,18.067-8.092,18.067-18.07
							c0-9.981-8.09-18.072-18.067-18.072C41.739,21.709,33.65,29.8,33.65,39.781"/>
					</defs>
					<clipPath id="SVGID_14_">
						<use xlink:href="#SVGID_13_"  overflow="visible"/>
					</clipPath>
					<rect x="22.129" y="10.188" clip-path="url(#SVGID_14_)" fill="#FFFFFF" width="59.18" height="59.186"/>
				</g>
			</g>
		</g>
	</g>
	<g>
		<g>
			<g>
				<g>
					<defs>
						<path id="SVGID_15_" d="M44.491,40.053c0,4.141,3.357,7.5,7.498,7.5c4.142,0,7.498-3.359,7.498-7.5
							c0-4.143-3.356-7.5-7.498-7.5C47.848,32.552,44.491,35.91,44.491,40.053"/>
					</defs>
					<clipPath id="SVGID_16_">
						<use xlink:href="#SVGID_15_"  overflow="visible"/>
					</clipPath>
					<rect x="32.971" y="21.03" clip-path="url(#SVGID_16_)" fill="#32ACFF" width="38.039" height="38.044"/>
				</g>
			</g>
		</g>
	</g>
	<g>
		<g>
			<g>
				<g>
					<defs>
						<path id="SVGID_17_" d="M44.497,39.781h14.987c-0.143-4.017-3.443-7.229-7.494-7.229
							C47.938,32.552,44.639,35.764,44.497,39.781"/>
					</defs>
					<clipPath id="SVGID_18_">
						<use xlink:href="#SVGID_17_"  overflow="visible"/>
					</clipPath>
					<rect x="32.971" y="17.417" clip-path="url(#SVGID_18_)" fill="#0291D3" width="39.303" height="33.886"/>
				</g>
			</g>
		</g>
	</g>
	<g>
		<g>
			<g>
				<g>
					<defs>
						<path id="SVGID_19_" d="M80.023,39.781c0,14.971,12.134,27.107,27.102,27.107c14.969,0,27.103-12.139,27.103-27.107
							c0-14.971-12.135-27.107-27.103-27.107S80.023,24.81,80.023,39.781"/>
					</defs>
					<clipPath id="SVGID_20_">
						<use xlink:href="#SVGID_19_"  overflow="visible"/>
					</clipPath>
					<rect x="68.501" y="1.152" clip-path="url(#SVGID_20_)" fill="#004174" width="77.248" height="77.258"/>
				</g>
			</g>
		</g>
	</g>
	<g>
		<g>
			<g>
				<g>
					<defs>
						<path id="SVGID_21_" d="M89.057,39.781c0,9.979,8.089,18.07,18.068,18.07c9.98,0,18.068-8.092,18.068-18.07
							c0-9.981-8.087-18.072-18.068-18.072C97.146,21.709,89.057,29.8,89.057,39.781"/>
					</defs>
					<clipPath id="SVGID_22_">
						<use xlink:href="#SVGID_21_"  overflow="visible"/>
					</clipPath>
					<rect x="77.536" y="10.188" clip-path="url(#SVGID_22_)" fill="#FFFFFF" width="59.179" height="59.186"/>
				</g>
			</g>
		</g>
	</g>
	<g>
		<g>
			<g>
				<g>
					<defs>
						<path id="SVGID_23_" d="M99.897,40.053c0,4.141,3.358,7.5,7.498,7.5c4.144,0,7.5-3.359,7.5-7.5c0-4.143-3.357-7.5-7.5-7.5
							C103.254,32.552,99.897,35.91,99.897,40.053"/>
					</defs>
					<clipPath id="SVGID_24_">
						<use xlink:href="#SVGID_23_"  overflow="visible"/>
					</clipPath>
					<rect x="88.377" y="21.03" clip-path="url(#SVGID_24_)" fill="#32ACFF" width="38.039" height="38.044"/>
				</g>
			</g>
		</g>
	</g>
	<g>
		<g>
			<g>
				<g>
					<defs>
						<path id="SVGID_25_" d="M99.901,39.781h14.988c-0.143-4.017-3.442-7.229-7.494-7.229
							C103.346,32.552,100.044,35.764,99.901,39.781"/>
					</defs>
					<clipPath id="SVGID_26_">
						<use xlink:href="#SVGID_25_"  overflow="visible"/>
					</clipPath>
					<rect x="88.377" y="17.417" clip-path="url(#SVGID_26_)" fill="#0291D3" width="39.303" height="33.886"/>
				</g>
			</g>
		</g>
	</g>
	<g>
		<g>
			<g>
				<g>
					<defs>
						<path id="SVGID_27_" d="M185.85,31.774c-0.535,0-1.005,0.211-1.408,0.636c-0.402,0.422-0.604,0.906-0.604,1.444
							c0,0.578,0.202,1.059,0.604,1.442c0.403,0.386,0.873,0.577,1.408,0.577h18.107L184.3,60.297
							c-0.384,0.461-0.577,1.057-0.577,1.789s0.269,1.365,0.805,1.906c0.537,0.537,1.188,0.807,1.954,0.807h20.924
							c0.613,0,1.112-0.189,1.494-0.574c0.386-0.389,0.575-0.85,0.575-1.387c0-0.578-0.189-1.07-0.575-1.475
							c-0.382-0.402-0.88-0.604-1.494-0.604H189.01l19.429-24.134c0.498-0.577,0.747-1.241,0.747-1.992
							c0-0.75-0.25-1.413-0.747-1.99c-0.499-0.578-1.205-0.866-2.126-0.866H185.85V31.774z M258.564,35.815h8.277
							c3.258,0,5.634,0.539,7.13,1.617c1.264,0.963,1.896,2.388,1.896,4.272c0,2.041-0.807,3.569-2.414,4.59
							c-1.609,1.021-3.736,1.531-6.381,1.531h-8.509L258.564,35.815L258.564,35.815z M256.378,31.774
							c-0.572,0-1.071,0.221-1.492,0.665c-0.422,0.442-0.633,0.95-0.633,1.529v28.923c0,0.579,0.211,1.079,0.633,1.504
							c0.421,0.424,0.92,0.633,1.492,0.633c0.615,0,1.134-0.209,1.555-0.633c0.421-0.425,0.631-0.925,0.631-1.504V51.924h9.715
							c1.801,0,3.192,0.355,4.17,1.068c0.975,0.711,1.742,1.664,2.299,2.855c0.559,1.191,0.836,3.061,0.836,5.602v1.441
							c0,0.654,0.197,1.176,0.604,1.561c0.397,0.385,0.917,0.574,1.552,0.574c0.633,0,1.148-0.209,1.555-0.633
							c0.397-0.426,0.603-0.926,0.603-1.504v-2.137c0.038-2.152-0.288-4.119-0.978-5.889c-1.035-2.732-2.684-4.391-4.942-4.967
							c2.104-0.691,3.668-1.838,4.685-3.435c1.017-1.598,1.522-3.299,1.522-5.109c0.039-2.809-0.978-5.082-3.046-6.812
							c-2.225-1.847-5.482-2.772-9.771-2.772h-10.981v0.003h-0.007V31.774z M176.308,33.045l-11.092,27.712l-11.037-27.712
							c-0.422-1.001-1.149-1.503-2.186-1.503c-0.574,0-1.044,0.214-1.409,0.636c-0.364,0.423-0.546,0.867-0.546,1.328
							s0.038,0.808,0.115,1.039l11.669,28.29c0.613,1.463,1.573,2.188,2.874,2.188h1.092c1.225,0,2.185-0.728,2.874-2.188
							l11.612-28.29c0.113-0.231,0.171-0.578,0.171-1.039s-0.182-0.905-0.545-1.328c-0.366-0.422-0.958-0.636-1.783-0.636
							C177.296,31.542,176.693,32.044,176.308,33.045 M221.604,57.523c-2.107-2.389-3.161-5.465-3.161-9.236
							c-0.038-3.773,1.017-6.854,3.161-9.238c2.224-2.463,5.25-3.694,9.083-3.694c3.793-0.039,6.801,1.192,9.023,3.694
							c2.146,2.384,3.218,5.465,3.218,9.238c0,3.771-1.073,6.848-3.218,9.236c-2.186,2.465-5.193,3.693-9.023,3.693
							C226.853,61.219,223.827,59.988,221.604,57.523 M218.729,36.047c-2.988,3.157-4.521,7.236-4.598,12.24
							c0.076,5.004,1.61,9.084,4.598,12.24c2.99,3.156,6.975,4.73,11.958,4.73c4.98,0,8.965-1.574,11.954-4.73
							c2.912-3.156,4.427-7.236,4.542-12.24c-0.115-5.043-1.63-9.123-4.542-12.24c-2.988-3.155-6.972-4.734-11.954-4.734
							C225.705,31.312,221.719,32.892,218.729,36.047"/>
					</defs>
					<clipPath id="SVGID_28_">
						<use xlink:href="#SVGID_27_"  overflow="visible"/>
					</clipPath>
					<rect x="138.519" y="19.791" clip-path="url(#SVGID_28_)" fill="#FFFFFF" width="153.184" height="56.991"/>
				</g>
			</g>
		</g>
	</g>
</g>
</svg>
